<svg width="20" height="20" viewBox="0 0 20 20" fill="none" xmlns="http://www.w3.org/2000/svg">
<path d="M10 20C15.5228 20 20 15.5228 20 10C20 4.47715 15.5228 0 10 0C4.47715 0 0 4.47715 0 10C0 15.5228 4.47715 20 10 20Z" fill="#F0F0F0"/>
<path d="M2.0673 3.91197C1.28179 4.93396 0.689487 6.11189 0.344604 7.39154H5.54687L2.0673 3.91197Z" fill="#0052B4"/>
<path d="M19.6557 7.39146C19.3108 6.11185 18.7185 4.93392 17.933 3.91193L14.4535 7.39146H19.6557Z" fill="#0052B4"/>
<path d="M0.344604 12.6088C0.689526 13.8885 1.28183 15.0664 2.0673 16.0883L5.54675 12.6088H0.344604Z" fill="#0052B4"/>
<path d="M16.0884 2.06734C15.0664 1.28183 13.8885 0.689526 12.6089 0.344604V5.54683L16.0884 2.06734Z" fill="#0052B4"/>
<path d="M3.91199 17.9329C4.93398 18.7184 6.11191 19.3107 7.39152 19.6557V14.4535L3.91199 17.9329Z" fill="#0052B4"/>
<path d="M7.39148 0.344604C6.11187 0.689526 4.93394 1.28183 3.91199 2.0673L7.39148 5.54679V0.344604Z" fill="#0052B4"/>
<path d="M12.6089 19.6557C13.8885 19.3107 15.0664 18.7184 16.0884 17.933L12.6089 14.4535V19.6557Z" fill="#0052B4"/>
<path d="M14.4535 12.6089L17.933 16.0884C18.7185 15.0664 19.3108 13.8885 19.6557 12.6089H14.4535Z" fill="#0052B4"/>
<path d="M19.9154 8.69566H11.3044H11.3044V0.0846484C10.8774 0.0290625 10.4421 0 10 0C9.55785 0 9.12262 0.0290625 8.69566 0.0846484V8.69559V8.69563H0.0846484C0.0290625 9.12262 0 9.55793 0 10C0 10.4421 0.0290625 10.8774 0.0846484 11.3043H8.69559H8.69563V19.9154C9.12262 19.9709 9.55785 20 10 20C10.4421 20 10.8774 19.971 11.3043 19.9154V11.3044V11.3044H19.9154C19.9709 10.8774 20 10.4421 20 10C20 9.55793 19.9709 9.12262 19.9154 8.69566Z" fill="#D80027"/>
<path d="M12.6086 12.6085L17.071 17.0709C17.2762 16.8657 17.472 16.6512 17.6588 16.4289L13.8384 12.6085H12.6086V12.6085Z" fill="#D80027"/>
<path d="M7.39134 12.6087H7.39126L2.92896 17.071C3.13411 17.2762 3.3486 17.472 3.57095 17.6588L7.39134 13.8384V12.6087Z" fill="#D80027"/>
<path d="M7.39122 7.39156V7.39148L2.92888 2.92909C2.72364 3.13425 2.52786 3.34874 2.34106 3.57109L6.16149 7.39152H7.39122V7.39156Z" fill="#D80027"/>
<path d="M12.6086 7.39118L17.071 2.92876C16.8659 2.72353 16.6514 2.52775 16.429 2.34099L12.6086 6.16142V7.39118Z" fill="#D80027"/>
</svg>
